<svg xmlns="http://www.w3.org/2000/svg" viewBox="0 0 594.01 182.59"><defs><style>.cls-1{fill:#ecf3e6;}</style></defs><title>journal_logo</title><g id="Layer_2" data-name="Layer 2"><g id="Layer_1-2" data-name="Layer 1"><path class="cls-1" d="M62.42,44.31c-12.3,1.93-23.72-5.4-21.24-16.42,1.29-5.69,14-21.46,20.33-25.42,16.11-10,16.28,13.12,16.72,20.65C78.72,31.44,75,42.09,62.42,44.31Z"/><path class="cls-1" d="M3.21,181.27c-7.76-4-.62-23.19,12.51-38.65,11.75-13.83,15.93-30.22,15.82-44.8s10-40,30.43-36.52c24.1,4.08,11.43,55.14,4.39,71.08s-15,27.69-23.48,34.34C37.26,171.11,14.92,187.26,3.21,181.27Z"/><path class="cls-1" d="M563.37,141.38c-25,0-26-25.43-22.51-42.94,2.93-14.65,9.93-29.39,13.76-43.85s4.14-38.13,14.29-49.88c12.24-14.15,15.65,7,17.86,18.59,2.52,13.29,2.92,50.36,4.6,63.71C594.38,111,601.88,141.3,563.37,141.38Z"/><path class="cls-1" d="M130,132.27l-1-.05h-.59a23.78,23.78,0,0,1-3.84-.32l-.54-.1-1.45-.28a9.73,9.73,0,0,1-1.82-.61l-.54-.22.2.07-.8-.31-.82-.33c-1.51-.57-3.06-1.18-4.58-1.82a15,15,0,0,1-2.82-1.71l-.72-.51a22.93,22.93,0,0,1-4.91-4.41c-.42-.52-.78-1.09-1.14-1.64l-.33-.53-.52-.77c-.32-.46-.63-.92-.91-1.4a15.62,15.62,0,0,1-1.84-4c-.15-.55-.34-1.09-.52-1.61a16.25,16.25,0,0,1-.58-1.87l0-.17c-.12-.51-.24-1-.32-1.52a16.23,16.23,0,0,1-.2-2l0-.44a12.33,12.33,0,0,1,.1-2.11l0-.26c.06-.59.13-1.17.23-1.75a33.48,33.48,0,0,1,.85-3.59,11.3,11.3,0,0,1,1.82-3.85,37,37,0,0,1,5.42-5.51c.86-.7,1.76-1.38,2.64-2l.86-.64A19.25,19.25,0,0,1,113,84.69c.5-.29,1-.56,1.52-.83l.55-.29.86-.46.85-.47.47-.34a18.62,18.62,0,0,1,2.16-1.25c.41-.22.82-.43,1.22-.66a28.19,28.19,0,0,1,3.65-1.83c1.22-.48,2.36-.91,3.5-1.31.51-.17,1-.38,1.51-.57a21.11,21.11,0,0,1,2.27-.83l.72-.2a39.3,39.3,0,0,1,4.09-1,22.53,22.53,0,0,1,3.56-.34h.76a35.72,35.72,0,0,1,4,.21,23.3,23.3,0,0,1,4,.73,16.57,16.57,0,0,1,4.28,2,19.45,19.45,0,0,1,1.63,1.19l.63.49a15,15,0,0,1,1.31,1A27.75,27.75,0,0,1,159,82.7l.28.34a23.11,23.11,0,0,1,2.75,3.9,17.08,17.08,0,0,1,1.71,4.32l.14.68a28.21,28.21,0,0,1,.66,3.89,10.2,10.2,0,0,1-.05,1.77l0,.37c-.1,1-.19,2-.37,3-.08.44-.19.88-.31,1.32l-.06.21a16.74,16.74,0,0,1-1,3l-.39.81c-.27.58-.55,1.16-.81,1.76a13,13,0,0,1-1,1.71l-.37.59c-.29.47-.57,1-.85,1.43-.7,1.17-1.42,2.4-2.23,3.53l.09-.16-.38.57c-.43.61-.88,1.24-1.38,1.83-.65.76-1.27,1.54-1.84,2.27a37,37,0,0,1-6.1,6l-.08.07a24.42,24.42,0,0,1-3,2.21,29.69,29.69,0,0,1-3.26,1.67c-.62.27-1.27.5-1.91.71l-.51.17-.9.33-.89.33a18.15,18.15,0,0,1-4.47.92c-.29,0-.59,0-.88,0C131,132.32,130.48,132.3,130,132.27Z"/><path class="cls-1" d="M286.44,132a17.07,17.07,0,0,1-3.62-1.26,23.4,23.4,0,0,1-2.81-1.51,12.1,12.1,0,0,1-3.95-4.19,22.58,22.58,0,0,1-1.71-4.19,13.94,13.94,0,0,1-.5-3.54,29.71,29.71,0,0,1,.06-3.34c0-.69.09-1.37.13-2.06.07-1.17.14-2.38.27-3.57l.09-.81c.24-2.07.48-4.22.92-6.31l.16-.78c.45-2.17.91-4.42,1.45-6.61l.31-1.28c.41-1.65.82-3.29,1.19-5,.13-.54.27-1.08.41-1.62l.22-.9.14-.55c.11-.46.21-.91.36-1.36s.36-1.15.59-1.74a10.41,10.41,0,0,1,.72-1.36,6.56,6.56,0,0,1,2.8-2.62,7.31,7.31,0,0,1,3-.81,4.07,4.07,0,0,1,.5,0,5.83,5.83,0,0,1,1.76.57,4.64,4.64,0,0,1,1.67,1.44,4.59,4.59,0,0,1,.87,1.77q.11.56.18,1.11c0,.23.06.46.1.69a2,2,0,0,0,.05.26l.39-.24.24-.15a20.84,20.84,0,0,1,2.18-1.06l.63-.27a39.69,39.69,0,0,1,6.28-2.37c.78-.2,1.56-.38,2.34-.57.58-.13,1.16-.27,1.73-.42l1.18-.28c.67-.16,1.34-.32,2-.51l.11,0c1.09-.3,2.2-.6,3.32-.86s2.35-.51,3.53-.75l.56-.12.28-.06a18.65,18.65,0,0,1,3.65-.5h.47a14.64,14.64,0,0,1,4.42,1.11,9.27,9.27,0,0,1,1.8,1l.19.12A13.73,13.73,0,0,1,329.06,78a18.27,18.27,0,0,1,1.31,1.6l.18.23a9.74,9.74,0,0,1,1.06,1.78l-.06-.1.1.19,0-.08h0a13.69,13.69,0,0,1,.65,1.71c.26.82.45,1.51.6,2.15.23,1,.36,2,.49,3l.07.6a15.61,15.61,0,0,1-.05,3.81,10.38,10.38,0,0,1-.82,3A10,10,0,0,1,331,98.26a8.28,8.28,0,0,1-1.21,1.11l-.31.24c-.39.31-.81.59-1.21.85a13.54,13.54,0,0,1-2.46,1.17l-.54.22-1.85.73c-1.07.42-2.18.85-3.25,1.32-.58.28-1,.51-1.45.75a11.4,11.4,0,0,0-1.18.82,20,20,0,0,0-2.91,2.93,18,18,0,0,0-1.28,2.41l-.26.53c-.24.51-.48,1-.72,1.56s-.4.9-.61,1.34a32.13,32.13,0,0,1-2.49,4.17l-.3.44c-.86,1.27-1.75,2.58-2.67,3.84l.34-.48a26.76,26.76,0,0,1-3.08,3.83c-.42.4-.82.81-1.22,1.22a18.87,18.87,0,0,1-2.25,1.94,15,15,0,0,1-2.64,1.61,12,12,0,0,1-1.92.81,14.24,14.24,0,0,1-1.93.36l-.13,0-.45.07a18.33,18.33,0,0,1-2.57.25A20,20,0,0,1,286.44,132Z"/><path class="cls-1" d="M362.6,132a15.21,15.21,0,0,1-2.25-.61,18.82,18.82,0,0,1-3-1.21,16.52,16.52,0,0,1-1.5-.95,25.47,25.47,0,0,1-2.68-2,13,13,0,0,1-1.58-1.8l-.27-.35a14.89,14.89,0,0,1-1.36-2.16,18.3,18.3,0,0,1-1.9-6,23.87,23.87,0,0,1-.29-3.76,22.69,22.69,0,0,1,.65-4.77c.56-2.35,3.63-11.19,4.21-12.76.78-2.11,3-9.14,4.9-12.36,1.22-2.06,3.48-4.19,6-4.51,6.34-.78,6.67,4.56,6.69,4.81l2-1.83a29.48,29.48,0,0,1,4-3.16,21.52,21.52,0,0,1,4.7-2.2A30.18,30.18,0,0,1,385.88,75l1-.17-.71.13h0a43.38,43.38,0,0,1,6.88-.6c1,0,2.06.05,3,.14a36.17,36.17,0,0,1,9.57,2.36A48.94,48.94,0,0,1,414.17,81,42.57,42.57,0,0,1,419,84.46,23.25,23.25,0,0,1,423,88.81l.06.09a31.7,31.7,0,0,1,2.47,3.73,28.83,28.83,0,0,1,2.07,4.93,22.11,22.11,0,0,1,.83,4.35,34.24,34.24,0,0,1,.29,4.37,27.25,27.25,0,0,1-1.63,8.57,20.07,20.07,0,0,1-1.88,4,15.62,15.62,0,0,1-2.63,3.13,26.41,26.41,0,0,1-3.91,2.88l-.27.18c-1.05.68-2.11,1.37-3.19,2a20.5,20.5,0,0,1-3.46,1.64,16.88,16.88,0,0,1-3.73.92,9.16,9.16,0,0,1-1.47.13l-.53,0a11.57,11.57,0,0,1-2.33-.36l-.48-.14-.48-.13a26.2,26.2,0,0,1-3.2-1.19,16.5,16.5,0,0,1-2-1,12.57,12.57,0,0,1-2.14-1.58,21.42,21.42,0,0,1-1.92-2.24l-.11-.13a16.64,16.64,0,0,1-1.87-3.18,12.13,12.13,0,0,0-.83-1.42,16.2,16.2,0,0,0-1.94-1.72c-.36-.23-.73-.44-1.11-.64l-.37.45c-.26.31-.52.62-.79.92-.46.51-.89,1-1.32,1.56l-.66.8-.21.25c-.54.64-1.07,1.28-1.58,2-1.05,1.43-1.95,2.62-2.95,3.76a27.09,27.09,0,0,1-4.09,3.68,13.88,13.88,0,0,1-5.48,2.4,18.27,18.27,0,0,1-3.44.49h-.56A20.06,20.06,0,0,1,362.6,132Z"/><path class="cls-1" d="M201.49,131.68A29.31,29.31,0,0,1,195.9,130,41.9,41.9,0,0,1,191,127.8a15.14,15.14,0,0,1-4-3.09,18.24,18.24,0,0,1-2.18-2.86,22.82,22.82,0,0,1-1.27-2.64c-.13-.31-.26-.62-.4-.92a21.23,21.23,0,0,1-1.43-4.55,30.83,30.83,0,0,1-.57-3.58,17.21,17.21,0,0,1,.07-2.69,50.75,50.75,0,0,1,.86-6.35c.31-1.43.76-2.87,1.2-4.26l.36-1.13c.7-2.29,1.37-4.2,2.11-6a25.42,25.42,0,0,1,2.48-4.45,45,45,0,0,1,3.69-4.91A18.56,18.56,0,0,1,196,77a19.13,19.13,0,0,1,2-1.08,17.37,17.37,0,0,1,2.93-1.16,11.84,11.84,0,0,1,3.21-.44,14,14,0,0,1,2.68.27,15.12,15.12,0,0,1,5.92,2.21,16.55,16.55,0,0,1,3.67,3.66,14.45,14.45,0,0,1,2,5.07,24.07,24.07,0,0,1,.5,3c.08.64.16,1.27.27,1.91l0-.09.1.52.1.58a1.62,1.62,0,0,1,0,.19l.15.8c.14.74.28,1.5.38,2.27,0,.3.06.61.08.92s0,.47.06.7a4.76,4.76,0,0,1,.28-.49,17,17,0,0,1,1.86-2.3l.11-.11.65-.72c1-1.08,2-2.2,3-3.24a41.39,41.39,0,0,1,6-4.78A23,23,0,0,1,237.58,82c.4-.13.79-.25,1.2-.34a6.77,6.77,0,0,1,1.55-.18c.3,0,.61,0,.94.05a9.51,9.51,0,0,1,3.94,1.33,13.9,13.9,0,0,1,3.46,3.25,10,10,0,0,1,2,3.92c.95,3.81-.22,7.79-1.48,11.18a43.46,43.46,0,0,1-2.52,5.65c-.67,1.24-1.47,2.43-2.23,3.6-.24.36-.48.72-.71,1.09a45.77,45.77,0,0,1-7.1,8.69,49.46,49.46,0,0,1-4.94,3.9,56.72,56.72,0,0,1-5.22,3.29,42.28,42.28,0,0,1-6,2.62c-.67.25-1.38.46-2.06.67l-.42.13a20.4,20.4,0,0,1-2.82.72,63.8,63.8,0,0,1-6.65.73l-1.06,0A36.53,36.53,0,0,1,201.49,131.68Z"/><path class="cls-1" d="M493,132.24a14.93,14.93,0,0,1-3.28-.77l-.56-.18a19.24,19.24,0,0,1-4.59-1.88,12.71,12.71,0,0,1-2.76-2.71,11.59,11.59,0,0,1-1.74-3.09A36.89,36.89,0,0,0,478.4,120c-.31-.54-.66-1.06-1-1.54l-.71.71c-.19.19-.38.39-.58.57a12.17,12.17,0,0,1-3.58,2.38,16.61,16.61,0,0,1-5,1.06c-1.57.16-3.12.32-4.68.5-.7.08-1.45.16-2.21.21-.33,0-.66,0-1,0h-.43a10,10,0,0,1-2.89-.58c-.73-.24-1.48-.51-2.28-.83a9.93,9.93,0,0,1-4.22-3,15.36,15.36,0,0,1-2.34-4.32,10.54,10.54,0,0,1-.43-5.38,20.47,20.47,0,0,1,3.69-8.88,47.64,47.64,0,0,1,3.07-3.74L454,97a49.87,49.87,0,0,1,3.74-3.89,85.18,85.18,0,0,1,7.73-6.19,78,78,0,0,1,9.15-5.49,98,98,0,0,1,9-4.2c.84-.35,1.54-.63,2.29-.9l.28-.11.52-.18c.62-.22,1.45-.52,2.31-.76a26.1,26.1,0,0,1,7-.94,25.64,25.64,0,0,1,4.48.39,21.15,21.15,0,0,1,5.42,1.61,14.6,14.6,0,0,1,4.51,3.49l.36.38a27,27,0,0,1,2.56,3,11.14,11.14,0,0,1,1.29,2.36,17.28,17.28,0,0,1,.63,2.21,28.33,28.33,0,0,1,.64,5c.05,1.47,0,2.95,0,4.2,0,.82-.07,1.64-.1,2.46-.06,2-.13,4-.33,6-.15,1.46-.38,3-.6,4.38l-.1.6c-.22,1.44-.47,2.76-.78,4a40.62,40.62,0,0,1-2.49,7.44l-.07.18a21.65,21.65,0,0,1-1.17,2.3,12.08,12.08,0,0,1-2,2.26,17.66,17.66,0,0,1-3.55,2.65,26.38,26.38,0,0,1-3.47,1.52l-.54.21-.25.09a17,17,0,0,1-3.1,1,14.78,14.78,0,0,1-2.62.22A17.22,17.22,0,0,1,493,132.24Z"/></g></g></svg>